<?xml version="1.0" encoding="UTF-8" standalone="no"?>
<!-- Created with Inkscape (http://www.inkscape.org/) -->

<svg
   width="10.437462mm"
   height="7.9352746mm"
   viewBox="0 0 10.437462 7.9352747"
   version="1.1"
   id="svg5"
   inkscape:version="1.2.1 (8a69933317, 2022-10-28, custom)"
   sodipodi:docname="shn-logo.svg"
   xmlns:inkscape="http://www.inkscape.org/namespaces/inkscape"
   xmlns:sodipodi="http://sodipodi.sourceforge.net/DTD/sodipodi-0.dtd"
   xmlns="http://www.w3.org/2000/svg"
   xmlns:svg="http://www.w3.org/2000/svg">
  <sodipodi:namedview
     id="namedview7"
     pagecolor="#ffffff"
     bordercolor="#999999"
     borderopacity="1"
     inkscape:showpageshadow="0"
     inkscape:pageopacity="0"
     inkscape:pagecheckerboard="0"
     inkscape:deskcolor="#d1d1d1"
     inkscape:document-units="px"
     showgrid="false"
     inkscape:zoom="3.5063972"
     inkscape:cx="64.311026"
     inkscape:cy="30.23046"
     inkscape:window-width="1366"
     inkscape:window-height="665"
     inkscape:window-x="0"
     inkscape:window-y="27"
     inkscape:window-maximized="1"
     inkscape:current-layer="layer1" />
  <defs
     id="defs2" />
  <g
     inkscape:label="Calque 1"
     inkscape:groupmode="layer"
     id="layer1"
     transform="translate(-50.149531,-176.27726)">
    <g
       id="g302"
       transform="matrix(0.1539381,0,0,0.1539381,40.228426,152.73929)"
       inkscape:export-filename="shn-logo.svg"
       inkscape:export-xdpi="64"
       inkscape:export-ydpi="64">
      <text
         xml:space="preserve"
         style="font-weight:bold;font-size:11.5142px;line-height:1.25;font-family:Montserrat;-inkscape-font-specification:'Montserrat Bold';letter-spacing:0px;word-spacing:0px;fill:#000000;stroke-width:0.287857"
         x="64.034149"
         y="204.36179"
         id="text296"><tspan
           sodipodi:role="line"
           id="tspan294"
           style="fill:#000000;stroke-width:0.287857"
           x="64.034149"
           y="204.36179">SAHIN</tspan></text>
      <text
         xml:space="preserve"
         style="font-weight:bold;font-size:11.5142px;line-height:1.25;font-family:Montserrat;-inkscape-font-specification:'Montserrat Bold';letter-spacing:0px;word-spacing:0px;fill:#000000;stroke-width:0.287857"
         x="104.22611"
         y="204.36179"
         id="text300"><tspan
           sodipodi:role="line"
           id="tspan298"
           style="fill:#000000;stroke-width:0.287857"
           x="104.22611"
           y="204.36179">BOIS</tspan></text>
    </g>
    <path
       id="path304"
       style="fill:#008000;fill-opacity:1;stroke:none;stroke-width:0.145321px;stroke-linecap:butt;stroke-linejoin:miter;stroke-opacity:1"
       d="m 55.368124,176.27726 a 0.22475601,0.22475601 0 0 0 -0.205279,0.13318 l -1.241828,2.78333 h 1.231157 c 0.06255,0 0.112877,0.0503 0.112877,0.11288 0,0.0626 -0.05033,0.11288 -0.112877,0.11288 h -1.331888 l -0.485868,1.08895 a 0.32681118,0.32681118 0 0 0 0.298375,0.45993 h 1.231591 2.239331 a 0.32678912,0.32678912 0 0 0 0.298374,-0.45993 L 56.2354,177.89407 h -0.857385 c -0.06255,0 -0.112964,-0.0503 -0.112964,-0.11287 0,-0.0625 0.05042,-0.11297 0.112964,-0.11297 h 0.756566 l -0.561265,-1.25779 a 0.22475601,0.22475601 0 0 0 -0.205192,-0.13318 z" />
    <rect
       style="fill:#864f34;fill-opacity:1;stroke-width:0.717034"
       id="rect360"
       width="1.3798882"
       height="0.45169067"
       x="54.678318"
       y="181.35405"
       ry="0.22584534" />
  </g>
</svg>
