<?xml version="1.0" encoding="UTF-8" standalone="no"?>
<!-- Created with Inkscape (http://www.inkscape.org/) -->

<svg
   width="40.786537mm"
   height="31.321152mm"
   viewBox="0 0 40.786537 31.321152"
   version="1.1"
   id="svg5"
   inkscape:version="1.2 (56b05e47e7, 2022-06-09, custom)"
   sodipodi:docname="shn-logo.svg"
   xmlns:inkscape="http://www.inkscape.org/namespaces/inkscape"
   xmlns:sodipodi="http://sodipodi.sourceforge.net/DTD/sodipodi-0.dtd"
   xmlns="http://www.w3.org/2000/svg"
   xmlns:svg="http://www.w3.org/2000/svg">
  <sodipodi:namedview
     id="namedview7"
     pagecolor="#ffffff"
     bordercolor="#999999"
     borderopacity="1"
     inkscape:showpageshadow="0"
     inkscape:pageopacity="0"
     inkscape:pagecheckerboard="0"
     inkscape:deskcolor="#d1d1d1"
     inkscape:document-units="px"
     showgrid="false"
     inkscape:zoom="0.8765993"
     inkscape:cx="273.7853"
     inkscape:cy="349.07625"
     inkscape:window-width="1366"
     inkscape:window-height="665"
     inkscape:window-x="0"
     inkscape:window-y="27"
     inkscape:window-maximized="1"
     inkscape:current-layer="layer1" />
  <defs
     id="defs2" />
  <g
     inkscape:label="Calque 1"
     inkscape:groupmode="layer"
     id="layer1"
     transform="translate(-82.631632,-172.27023)">
    <g
       id="g5686"
       transform="matrix(0.60154501,0,0,0.60154501,43.862862,80.603162)"
       inkscape:export-filename="../140c71f4/shn-logo-white.svg"
       inkscape:export-xdpi="64"
       inkscape:export-ydpi="64"
       style="fill:#ffffff;fill-opacity:1">
      <text
         xml:space="preserve"
         style="font-weight:bold;font-size:11.5142px;line-height:1.25;font-family:Montserrat;-inkscape-font-specification:'Montserrat Bold';letter-spacing:0px;word-spacing:0px;fill:#ffffff;fill-opacity:1;stroke-width:0.287857"
         x="64.034149"
         y="204.36179"
         id="text6553"><tspan
           sodipodi:role="line"
           id="tspan6551"
           style="fill:#ffffff;fill-opacity:1;stroke-width:0.287857"
           x="64.034149"
           y="204.36179">SAHIN</tspan></text>
      <text
         xml:space="preserve"
         style="font-weight:bold;font-size:11.5142px;line-height:1.25;font-family:Montserrat;-inkscape-font-specification:'Montserrat Bold';letter-spacing:0px;word-spacing:0px;fill:#ffffff;fill-opacity:1;stroke-width:0.287857"
         x="104.22611"
         y="204.36179"
         id="text6557"><tspan
           sodipodi:role="line"
           id="tspan6555"
           style="fill:#ffffff;fill-opacity:1;stroke-width:0.287857"
           x="104.22611"
           y="204.36179">BOIS</tspan></text>
    </g>
    <path
       id="path4270"
       style="fill:#ffffff;fill-opacity:1;stroke:none;stroke-width:0.567871px;stroke-linecap:butt;stroke-linejoin:miter;stroke-opacity:1"
       d="m 103.02437,172.27024 a 0.87828066,0.87828066 0 0 0 -0.80217,0.52043 l -4.8527,10.87644 h 4.811 c 0.24442,0 0.44109,0.19667 0.44109,0.4411 0,0.24442 -0.19667,0.44109 -0.44109,0.44109 h -5.204628 l -1.898631,4.25531 a 1.2770824,1.2770824 0 0 0 1.165963,1.79726 h 4.812696 8.75065 a 1.2769962,1.2769962 0 0 0 1.16596,-1.79726 l -4.55908,-10.21634 h -3.35041 c -0.24442,0 -0.44143,-0.19666 -0.44143,-0.44109 0,-0.24442 0.19701,-0.44143 0.44143,-0.44143 h 2.95644 l -2.19326,-4.91508 a 0.87828066,0.87828066 0 0 0 -0.80183,-0.52043 z" />
    <circle
       style="fill:#ffffff;fill-opacity:1;stroke-width:0.347179"
       id="path4330"
       r="2.1914349"
       cy="193.9377"
       cx="103.0249" />
  </g>
</svg>
